<svg width="135" height="24" viewBox="0 0 135 24" fill="none" xmlns="http://www.w3.org/2000/svg">
<path d="M10.314 18L7.596 14.13C7.26 14.154 6.996 14.166 6.804 14.166H3.69V18H1.89V5.4H6.804C8.436 5.4 9.72 5.79 10.656 6.57C11.592 7.35 12.06 8.424 12.06 9.792C12.06 10.764 11.82 11.592 11.34 12.276C10.86 12.96 10.176 13.458 9.288 13.77L12.276 18H10.314ZM6.75 12.636C7.89 12.636 8.76 12.39 9.36 11.898C9.96 11.406 10.26 10.704 10.26 9.792C10.26 8.88 9.96 8.184 9.36 7.704C8.76 7.212 7.89 6.966 6.75 6.966H3.69V12.636H6.75ZM23.3381 13.284C23.3381 13.416 23.3261 13.59 23.3021 13.806H15.5621C15.6701 14.646 16.0361 15.324 16.6601 15.84C17.2961 16.344 18.0821 16.596 19.0181 16.596C20.1581 16.596 21.0761 16.212 21.7721 15.444L22.7261 16.56C22.2941 17.064 21.7541 17.448 21.1061 17.712C20.4701 17.976 19.7561 18.108 18.9641 18.108C17.9561 18.108 17.0621 17.904 16.2821 17.496C15.5021 17.076 14.8961 16.494 14.4641 15.75C14.0441 15.006 13.8341 14.166 13.8341 13.23C13.8341 12.306 14.0381 11.472 14.4461 10.728C14.8661 9.984 15.4361 9.408 16.1561 9C16.8881 8.58 17.7101 8.37 18.6221 8.37C19.5341 8.37 20.3441 8.58 21.0521 9C21.7721 9.408 22.3301 9.984 22.7261 10.728C23.1341 11.472 23.3381 12.324 23.3381 13.284ZM18.6221 9.828C17.7941 9.828 17.0981 10.08 16.5341 10.584C15.9821 11.088 15.6581 11.748 15.5621 12.564H21.6821C21.5861 11.76 21.2561 11.106 20.6921 10.602C20.1401 10.086 19.4501 9.828 18.6221 9.828ZM28.9479 8.37C30.2679 8.37 31.2759 8.694 31.9719 9.342C32.6799 9.99 33.0339 10.956 33.0339 12.24V18H31.3959V16.74C31.1079 17.184 30.6939 17.526 30.1539 17.766C29.6259 17.994 28.9959 18.108 28.2639 18.108C27.1959 18.108 26.3379 17.85 25.6899 17.334C25.0539 16.818 24.7359 16.14 24.7359 15.3C24.7359 14.46 25.0419 13.788 25.6539 13.284C26.2659 12.768 27.2379 12.51 28.5699 12.51H31.3059V12.168C31.3059 11.424 31.0899 10.854 30.6579 10.458C30.2259 10.062 29.5899 9.864 28.7499 9.864C28.1859 9.864 27.6339 9.96 27.0939 10.152C26.5539 10.332 26.0979 10.578 25.7259 10.89L25.0059 9.594C25.4979 9.198 26.0859 8.898 26.7699 8.694C27.4539 8.478 28.1799 8.37 28.9479 8.37ZM28.5519 16.776C29.2119 16.776 29.7819 16.632 30.2619 16.344C30.7419 16.044 31.0899 15.624 31.3059 15.084V13.752H28.6419C27.1779 13.752 26.4459 14.244 26.4459 15.228C26.4459 15.708 26.6319 16.086 27.0039 16.362C27.3759 16.638 27.8919 16.776 28.5519 16.776ZM45.2845 4.644V18H43.6285V16.488C43.2445 17.016 42.7585 17.418 42.1705 17.694C41.5825 17.97 40.9345 18.108 40.2265 18.108C39.3025 18.108 38.4745 17.904 37.7425 17.496C37.0105 17.088 36.4345 16.518 36.0145 15.786C35.6065 15.042 35.4025 14.19 35.4025 13.23C35.4025 12.27 35.6065 11.424 36.0145 10.692C36.4345 9.96 37.0105 9.39 37.7425 8.982C38.4745 8.574 39.3025 8.37 40.2265 8.37C40.9105 8.37 41.5405 8.502 42.1165 8.766C42.6925 9.018 43.1725 9.396 43.5565 9.9V4.644H45.2845ZM40.3705 16.596C40.9705 16.596 41.5165 16.458 42.0085 16.182C42.5005 15.894 42.8845 15.498 43.1605 14.994C43.4365 14.478 43.5745 13.89 43.5745 13.23C43.5745 12.57 43.4365 11.988 43.1605 11.484C42.8845 10.968 42.5005 10.572 42.0085 10.296C41.5165 10.02 40.9705 9.882 40.3705 9.882C39.7585 9.882 39.2065 10.02 38.7145 10.296C38.2345 10.572 37.8505 10.968 37.5625 11.484C37.2865 11.988 37.1485 12.57 37.1485 13.23C37.1485 13.89 37.2865 14.478 37.5625 14.994C37.8505 15.498 38.2345 15.894 38.7145 16.182C39.2065 16.458 39.7585 16.596 40.3705 16.596ZM65.322 8.37C66.522 8.37 67.47 8.718 68.166 9.414C68.874 10.11 69.228 11.142 69.228 12.51V18H67.5V12.708C67.5 11.784 67.284 11.088 66.852 10.62C66.432 10.152 65.826 9.918 65.034 9.918C64.158 9.918 63.462 10.194 62.946 10.746C62.43 11.286 62.172 12.066 62.172 13.086V18H60.444V12.708C60.444 11.784 60.228 11.088 59.796 10.62C59.376 10.152 58.77 9.918 57.978 9.918C57.102 9.918 56.406 10.194 55.89 10.746C55.374 11.286 55.116 12.066 55.116 13.086V18H53.388V8.46H55.044V9.882C55.392 9.39 55.848 9.018 56.412 8.766C56.976 8.502 57.618 8.37 58.338 8.37C59.082 8.37 59.742 8.52 60.318 8.82C60.894 9.12 61.338 9.558 61.65 10.134C62.01 9.582 62.508 9.15 63.144 8.838C63.792 8.526 64.518 8.37 65.322 8.37ZM76.5463 18.108C75.5983 18.108 74.7463 17.898 73.9903 17.478C73.2343 17.058 72.6403 16.482 72.2083 15.75C71.7883 15.006 71.5783 14.166 71.5783 13.23C71.5783 12.294 71.7883 11.46 72.2083 10.728C72.6403 9.984 73.2343 9.408 73.9903 9C74.7463 8.58 75.5983 8.37 76.5463 8.37C77.4943 8.37 78.3403 8.58 79.0843 9C79.8403 9.408 80.4283 9.984 80.8483 10.728C81.2803 11.46 81.4963 12.294 81.4963 13.23C81.4963 14.166 81.2803 15.006 80.8483 15.75C80.4283 16.482 79.8403 17.058 79.0843 17.478C78.3403 17.898 77.4943 18.108 76.5463 18.108ZM76.5463 16.596C77.1583 16.596 77.7043 16.458 78.1843 16.182C78.6763 15.894 79.0603 15.498 79.3363 14.994C79.6123 14.478 79.7503 13.89 79.7503 13.23C79.7503 12.57 79.6123 11.988 79.3363 11.484C79.0603 10.968 78.6763 10.572 78.1843 10.296C77.7043 10.02 77.1583 9.882 76.5463 9.882C75.9343 9.882 75.3823 10.02 74.8903 10.296C74.4103 10.572 74.0263 10.968 73.7383 11.484C73.4623 11.988 73.3243 12.57 73.3243 13.23C73.3243 13.89 73.4623 14.478 73.7383 14.994C74.0263 15.498 74.4103 15.894 74.8903 16.182C75.3823 16.458 75.9343 16.596 76.5463 16.596ZM85.542 10.062C85.842 9.51 86.286 9.09 86.874 8.802C87.462 8.514 88.176 8.37 89.016 8.37V10.044C88.92 10.032 88.788 10.026 88.62 10.026C87.684 10.026 86.946 10.308 86.406 10.872C85.878 11.424 85.614 12.216 85.614 13.248V18H83.886V8.46H85.542V10.062ZM99.6799 13.284C99.6799 13.416 99.6679 13.59 99.6439 13.806H91.9039C92.0119 14.646 92.3779 15.324 93.0019 15.84C93.6379 16.344 94.4239 16.596 95.3599 16.596C96.4999 16.596 97.4179 16.212 98.1139 15.444L99.0679 16.56C98.6359 17.064 98.0959 17.448 97.4479 17.712C96.8119 17.976 96.0979 18.108 95.3059 18.108C94.2979 18.108 93.4039 17.904 92.6239 17.496C91.8439 17.076 91.2379 16.494 90.8059 15.75C90.3859 15.006 90.1759 14.166 90.1759 13.23C90.1759 12.306 90.3799 11.472 90.7879 10.728C91.2079 9.984 91.7779 9.408 92.4979 9C93.2299 8.58 94.0519 8.37 94.9639 8.37C95.8759 8.37 96.6859 8.58 97.3939 9C98.1139 9.408 98.6719 9.984 99.0679 10.728C99.4759 11.472 99.6799 12.324 99.6799 13.284ZM94.9639 9.828C94.1359 9.828 93.4399 10.08 92.8759 10.584C92.3239 11.088 91.9999 11.748 91.9039 12.564H98.0239C97.9279 11.76 97.5979 11.106 97.0339 10.602C96.4819 10.086 95.7919 9.828 94.9639 9.828Z" fill="#04FF14"/>
<path d="M113 12L133 12" stroke="#04FF14" stroke-width="2" stroke-linecap="round" stroke-linejoin="round"/>
<path d="M128 7L133 12L128 17" stroke="#04FF14" stroke-width="2" stroke-linecap="round" stroke-linejoin="round"/>
</svg>
