<svg width="250" height="150" viewBox="0 0 250 150" fill="none" xmlns="http://www.w3.org/2000/svg">
<g clip-path="url(#clip0_125_379)">
<path d="M212.724 98.7269H37.2732V51.2729H212.724V98.7269Z" fill="#231F20"/>
<path d="M37.2744 98.7269H212.725V51.2729H37.2744V98.7269Z" stroke="black" stroke-width="0.5725"/>
<path d="M208.777 94.8008H41.2188V55.1992H208.777V94.8008Z" fill="#FEDD03"/>
<path d="M208.779 55.1992H41.22V94.8008H208.779V55.1992Z" stroke="#FEDD03" stroke-width="0.5725"/>
<path d="M52.339 71.8911C49.5991 69.4934 48.4078 67.1089 49.5584 65.7449C50.5244 64.7839 54.3945 65.2811 57.4771 68.1438C60.5598 71.0052 60.8474 73.664 60.2314 74.3997C59.6141 75.1353 55.8747 74.6047 53.655 72.8867C53.0785 72.5183 52.339 71.8911 52.339 71.8911Z" stroke="black" stroke-width="0.72"/>
<path d="M52.6673 72.0677C51.271 70.9636 48.1056 67.8971 48.1464 64.9116C48.1464 63.9316 49.2562 62.1324 51.9697 62.2135C54.682 62.2957 57.2721 63.8898 60.8054 67.6932C64.3411 71.4966 73.7592 82.4012 75.0273 83.8438C76.7544 85.8063 77.5766 87.6055 84.8913 87.6055H198.17" stroke="black" stroke-width="0.72"/>
<path d="M197.515 77.9467C200.255 80.3456 201.446 82.7302 200.296 84.0941C199.33 85.0539 195.459 84.5567 192.376 81.6941C189.293 78.8326 189.007 76.175 189.623 75.4382C190.24 74.7037 193.979 75.2331 196.199 76.9512C196.774 77.3208 197.515 77.9467 197.515 77.9467Z" stroke="black" stroke-width="0.72"/>
<path d="M197.186 77.7691C198.583 78.8731 201.748 81.9408 201.707 84.9251C201.707 85.9076 200.599 87.7055 197.885 87.6232C195.172 87.5422 192.582 85.9469 189.048 82.1447C185.514 78.3425 176.095 67.4356 174.828 65.9941C173.101 64.0304 172.277 62.2325 164.962 62.2325H51.7649" stroke="black" stroke-width="0.72"/>
<path d="M50.7783 65.293H58.1769" stroke="black" stroke-width="0.77125"/>
<path d="M59.656 74.6973H67.0546" stroke="black" stroke-width="0.77125"/>
<path d="M182.8 75.1353H190.526" stroke="black" stroke-width="0.77125"/>
<path d="M191.759 84.5386H199.159" stroke="black" stroke-width="0.77125"/>
<path d="M49.2983 67.9805H57.1356" stroke="black" stroke-width="0.515"/>
<path d="M50.8325 70.3247H59.2175" stroke="black" stroke-width="0.515"/>
<path d="M53.5183 72.7236H65.2461" stroke="black" stroke-width="0.515"/>
<path d="M60.5334 73.4863H65.9041" stroke="black" stroke-width="0.515"/>
<path d="M59.656 70.7607H63.3283" stroke="black" stroke-width="0.515"/>
<path d="M57.5742 68.145H60.9158" stroke="black" stroke-width="0.515"/>
<path d="M56.0388 66.8906H59.8202" stroke="black" stroke-width="0.515"/>
<path d="M48.1465 65.1763H50.504" stroke="black" stroke-width="0.515"/>
<path d="M48.2556 64.3271H56.9151" stroke="black" stroke-width="0.515"/>
<path d="M48.8596 63.2935H55.6542" stroke="black" stroke-width="0.515"/>
<path d="M56.8059 63.8921H172.552" stroke="black" stroke-width="0.515"/>
<path d="M174.25 65.7925H58.8328" stroke="black" stroke-width="0.515"/>
<path d="M60.3142 67.0146H76.3387" stroke="black" stroke-width="0.515"/>
<path d="M61.4097 68.3789H76.3387" stroke="black" stroke-width="0.515"/>
<path d="M62.5051 69.6245H76.3375" stroke="black" stroke-width="0.515"/>
<path d="M63.875 70.9805H76.3386" stroke="black" stroke-width="0.515"/>
<path d="M64.8613 72.3276H76.3386" stroke="black" stroke-width="0.515"/>
<path d="M66.2312 73.7593H76.3385" stroke="black" stroke-width="0.515"/>
<path d="M67.7114 75.2163H76.3385" stroke="black" stroke-width="0.515"/>
<path d="M69.7383 77.687H76.3387" stroke="black" stroke-width="0.515"/>
<path d="M71.5469 79.6479H76.3375" stroke="black" stroke-width="0.515"/>
<path d="M73.1362 81.5557H76.3375" stroke="black" stroke-width="0.515"/>
<path d="M74.4521 83.082H76.3387" stroke="black" stroke-width="0.515"/>
<path d="M75.8772 84.6392H191.678" stroke="black" stroke-width="0.515"/>
<path d="M77.4126 86.0649H193.376" stroke="black" stroke-width="0.515"/>
<path d="M197.598 78.1211H189.926" stroke="black" stroke-width="0.515"/>
<path d="M199.624 80.248H191.075" stroke="black" stroke-width="0.515"/>
<path d="M172.902 68.0356H176.497" stroke="black" stroke-width="0.515"/>
<path d="M177.977 69.7964H172.902" stroke="black" stroke-width="0.515"/>
<path d="M180.114 72.125H172.903" stroke="black" stroke-width="0.515"/>
<path d="M181.486 73.5581H172.903" stroke="black" stroke-width="0.515"/>
<path d="M182.332 74.6885H172.904" stroke="black" stroke-width="0.515"/>
<path d="M189.378 76.8701H184.5" stroke="black" stroke-width="0.515"/>
<path d="M189.596 77.8501H185.158" stroke="black" stroke-width="0.515"/>
<path d="M190.145 78.668H185.98" stroke="black" stroke-width="0.515"/>
<path d="M184.664 77.4141H172.903" stroke="black" stroke-width="0.515"/>
<path d="M186.255 78.9946H172.903" stroke="black" stroke-width="0.515"/>
<path d="M187.076 79.9751H172.903" stroke="black" stroke-width="0.515"/>
<path d="M172.903 81.2305H188.226" stroke="black" stroke-width="0.515"/>
<path d="M188.939 82.2354H172.903" stroke="black" stroke-width="0.515"/>
<path d="M190.254 83.4194H172.903" stroke="black" stroke-width="0.515"/>
<path d="M190.638 83.6294H195.241" stroke="black" stroke-width="0.515"/>
<path d="M189.76 82.7578H193.597" stroke="black" stroke-width="0.515"/>
<path d="M188.993 81.9399H192.445" stroke="black" stroke-width="0.515"/>
<path d="M188.117 81.0122H191.679" stroke="black" stroke-width="0.515"/>
<path d="M193.159 85.8647H201.379" stroke="black" stroke-width="0.515"/>
<path d="M88.8118 78.6742V67.2795H85.6321V78.1281C85.6321 79.3824 84.207 79.9201 83.3309 79.9201C82.8371 79.9201 80.8092 79.1022 80.3178 78.6658L79.0569 81.0647C79.0569 81.0647 81.1939 82.9175 83.6593 82.9175C86.1259 82.9175 87.2765 81.7192 87.7164 81.228C88.1538 80.738 88.8118 79.5457 88.8118 78.6742Z" fill="black"/>
<path d="M91.935 82.9458C92.919 82.9458 93.7185 82.1517 93.7185 81.1717C93.7185 80.1928 92.919 79.4 91.935 79.4C90.951 79.4 90.1516 80.1928 90.1516 81.1717C90.1516 82.1517 90.951 82.9458 91.935 82.9458Z" fill="black"/>
<path d="M111.499 82.9458C112.483 82.9458 113.282 82.1517 113.282 81.1717C113.282 80.1928 112.483 79.4 111.499 79.4C110.515 79.4 109.716 80.1928 109.716 81.1717C109.716 82.1517 110.515 82.9458 111.499 82.9458Z" fill="black"/>
<path d="M104.342 73.5192C105.242 73.5192 105.97 72.7932 105.97 71.9001C105.97 71.0059 105.242 70.2798 104.342 70.2798L102.179 70.2762V73.5061L104.342 73.5192ZM104.652 79.8121C105.623 79.8121 106.411 79.0765 106.411 78.1083C106.411 77.1438 105.623 76.3593 104.652 76.3593L102.179 76.3557V79.8026L104.652 79.8121ZM102.179 82.5913H99V66.9999H102.179C103.535 66.9999 102.616 67.0046 105.083 67.0046C108.165 67.0046 109.397 69.6622 109.397 70.7257C109.397 71.7893 109.604 73.4251 107.59 74.5696C109.522 75.5509 109.974 76.9399 109.974 78.249C109.974 79.5581 108.905 82.5842 105.001 82.5842L102.179 82.5913Z" fill="black"/>
<path d="M126.982 67.2795V73.8275H122.432V67.2795H119.255V82.8638L122.432 82.8495V76.5673H126.982V82.8638L130.16 82.8495V67.2795H126.982Z" fill="black"/>
<path d="M139.038 79.9152C140.193 79.9152 141.11 79.0234 141.11 77.874L141.107 67.2842H144.108V76.6484C144.108 79.0472 144.381 80.2455 143.23 81.4449C142.079 82.6443 140.489 83.2715 139.038 83.2715C137.585 83.2715 135.996 82.6443 134.844 81.4449C133.694 80.2455 133.968 79.0472 133.968 76.6484V67.2842H136.968L136.966 77.874C136.966 79.0234 137.883 79.9152 139.038 79.9152Z" fill="black"/>
<path d="M169.605 67.2854H159.823V70.1898H163.113V82.8638H166.319V70.1898H169.605V67.2854Z" fill="black"/>
<path d="M154.645 82.8232L150.411 74.2364V82.8638H147.45V67.2854H150.411L154.5 74.8087L154.517 74.4606V67.2854H157.476V82.8638H154.66L154.645 82.8232Z" fill="black"/>
</g>
<defs>
<clipPath id="clip0_125_379">
<rect width="176" height="48" fill="white" transform="translate(37 51)"/>
</clipPath>
</defs>
</svg>
