<svg width="250" height="150" viewBox="0 0 250 150" fill="none" xmlns="http://www.w3.org/2000/svg">
<path fill-rule="evenodd" clip-rule="evenodd" d="M183.127 96.7591L176.961 89.8462L170.857 96.7591H158.006L170.569 82.6442L158.006 68.5292H171.259L177.482 75.3854L183.471 68.5292H196.262L183.759 82.5863L196.434 96.758L183.127 96.7591ZM133.323 96.7591V52.29H158.006V62.2022H143.778V68.5292H158.006V78.065H143.778V86.8196H158.006V96.7591H133.323Z" fill="#D9782D"/>
<path fill-rule="evenodd" clip-rule="evenodd" d="M122.913 52.29V70.4888H122.798C120.494 67.8386 117.613 66.9167 114.273 66.9167C107.426 66.9167 102.27 71.5722 100.461 77.7235C98.3955 70.9459 93.0723 66.7912 85.1796 66.7912C78.7686 66.7912 73.7072 69.6683 71.0647 74.3565V68.5292H57.8128V62.2022H72.2725V52.29H46V96.7591H57.8128V78.065H69.5853C69.2224 79.502 69.0413 80.9788 69.0463 82.4609C69.0463 91.737 76.1337 98.2462 85.1786 98.2462C92.7832 98.2462 97.7944 94.6752 100.446 88.166H90.3229C88.9547 90.1233 87.9149 90.7027 85.1786 90.7027C82.0036 90.7027 79.2672 87.9347 79.2672 84.6506H99.8794C100.773 92.0174 106.512 98.3717 114.387 98.3717C117.786 98.3717 120.897 96.7013 122.798 93.8776H122.913V96.7591H133.323V52.29H122.913ZM79.5956 78.1981C80.2525 75.3756 82.4422 73.5284 85.1786 73.5284C88.1877 73.5284 90.2683 75.3189 90.8149 78.1981H79.5956ZM116.593 89.9891C112.755 89.9891 110.371 86.4116 110.371 82.678C110.371 78.6858 112.444 74.8486 116.593 74.8486C120.895 74.8486 122.607 78.6858 122.607 82.678C122.607 86.4618 120.792 89.9891 116.593 89.9891Z" fill="#F3F3F3"/>
<path fill-rule="evenodd" clip-rule="evenodd" d="M199.281 93.8942C199.282 93.5184 199.356 93.1464 199.501 92.7996C199.646 92.4527 199.857 92.1377 200.123 91.8726C200.39 91.6075 200.706 91.3976 201.054 91.2547C201.401 91.1118 201.773 91.0389 202.149 91.0401C202.524 91.0401 202.895 91.1139 203.241 91.2574C203.587 91.4009 203.902 91.6111 204.166 91.8762C204.431 92.1413 204.641 92.456 204.784 92.8022C204.927 93.1485 205.001 93.5196 205 93.8942C205.002 94.2699 204.93 94.6424 204.788 94.9901C204.646 95.3378 204.436 95.654 204.171 95.9203C203.906 96.1867 203.591 96.3981 203.244 96.5423C202.897 96.6864 202.525 96.7606 202.149 96.7604C201.772 96.7617 201.399 96.6885 201.051 96.5449C200.702 96.4014 200.385 96.1903 200.119 95.924C199.852 95.6576 199.641 95.3411 199.497 94.9928C199.353 94.6444 199.28 94.2711 199.281 93.8942ZM204.5 93.8942C204.5 93.271 204.252 92.6735 203.812 92.2327C203.371 91.7919 202.774 91.5439 202.15 91.543C201.525 91.5419 200.925 91.7888 200.481 92.2295C200.038 92.6703 199.788 93.269 199.785 93.8942C199.785 95.2024 200.842 96.2596 202.15 96.2596C202.46 96.2588 202.766 96.1969 203.052 96.0775C203.338 95.9582 203.597 95.7837 203.816 95.564C204.034 95.3443 204.207 95.0838 204.324 94.7973C204.442 94.5108 204.502 94.2039 204.5 93.8942ZM201.54 94.083V95.5374H201.017V92.1758H202.103C202.719 92.1758 203.358 92.3439 203.358 93.1043C203.358 93.4906 203.124 93.796 202.672 93.8888V93.9052C203.139 93.9957 203.192 94.2008 203.242 94.5652C203.289 94.8827 203.328 95.233 203.443 95.5385H202.772C202.734 95.3497 202.683 95.1359 202.659 94.9362C202.621 94.6471 202.621 94.3809 202.467 94.2216C202.339 94.0841 202.165 94.1005 201.981 94.0841H201.54V94.083ZM202.094 93.5615C202.59 93.5429 202.704 93.3378 202.704 93.0803C202.704 92.8305 202.59 92.6995 202.173 92.6995H201.54V93.5615H202.094Z" fill="#D9782D"/>
</svg>
