<svg width="28" height="28" viewBox="0 0 28 28" fill="none" xmlns="http://www.w3.org/2000/svg">
<g id="ig-instagram 1" clip-path="url(#clip0_62_644)">
<path id="Vector" d="M14.0068 0.21212C8.24962 0.21212 6.56585 0.218059 6.23856 0.245211C5.05708 0.343423 4.32189 0.529453 3.52094 0.928241C2.90369 1.23476 2.41688 1.59006 1.93644 2.08812C1.06147 2.99642 0.531183 4.11388 0.339219 5.44218C0.245889 6.08703 0.218738 6.21854 0.213223 9.51236C0.211102 10.6103 0.213223 12.0553 0.213223 13.9934C0.213223 19.7462 0.219586 21.4283 0.247161 21.7549C0.342613 22.9046 0.522911 23.628 0.904717 24.4192C1.63439 25.9337 3.02799 27.0707 4.66975 27.4949C5.23822 27.6413 5.86608 27.7219 6.67212 27.7601C7.01362 27.7749 10.4944 27.7855 13.9774 27.7855C17.4603 27.7855 20.9432 27.7813 21.2762 27.7643C22.2095 27.7204 22.7515 27.6477 23.3507 27.4928C25.0031 27.0665 26.3712 25.9465 27.1157 24.4107C27.4901 23.6386 27.68 22.8877 27.7659 21.798C27.7845 21.5604 27.7924 17.7726 27.7924 13.9898C27.7924 10.2064 27.7839 6.42557 27.7652 6.188C27.6783 5.08073 27.4884 4.33618 27.102 3.54921C26.7848 2.905 26.4327 2.42391 25.9215 1.932C25.0092 1.0606 23.8935 0.530302 22.564 0.338544C21.9198 0.245423 21.7914 0.217847 18.4952 0.21212H14.0068Z" fill="url(#paint0_radial_62_644)"/>
<path id="Vector_2" d="M14.0068 0.21212C8.24962 0.21212 6.56585 0.218059 6.23856 0.245211C5.05708 0.343423 4.32189 0.529453 3.52094 0.928241C2.90369 1.23476 2.41688 1.59006 1.93644 2.08812C1.06147 2.99642 0.531183 4.11388 0.339219 5.44218C0.245889 6.08703 0.218738 6.21854 0.213223 9.51236C0.211102 10.6103 0.213223 12.0553 0.213223 13.9934C0.213223 19.7462 0.219586 21.4283 0.247161 21.7549C0.342613 22.9046 0.522911 23.628 0.904717 24.4192C1.63439 25.9337 3.02799 27.0707 4.66975 27.4949C5.23822 27.6413 5.86608 27.7219 6.67212 27.7601C7.01362 27.7749 10.4944 27.7855 13.9774 27.7855C17.4603 27.7855 20.9432 27.7813 21.2762 27.7643C22.2095 27.7204 22.7515 27.6477 23.3507 27.4928C25.0031 27.0665 26.3712 25.9465 27.1157 24.4107C27.4901 23.6386 27.68 22.8877 27.7659 21.798C27.7845 21.5604 27.7924 17.7726 27.7924 13.9898C27.7924 10.2064 27.7839 6.42557 27.7652 6.188C27.6783 5.08073 27.4884 4.33618 27.102 3.54921C26.7848 2.905 26.4327 2.42391 25.9215 1.932C25.0092 1.0606 23.8935 0.530302 22.564 0.338544C21.9198 0.245423 21.7914 0.217847 18.4952 0.21212H14.0068Z" fill="url(#paint1_radial_62_644)"/>
<path id="Vector_3" d="M14.0005 3.81818C11.2353 3.81818 10.8883 3.83027 9.8023 3.87969C8.71839 3.92933 7.97853 4.10093 7.33116 4.35272C6.66151 4.61278 6.09347 4.96066 5.52755 5.52681C4.9612 6.09275 4.61333 6.66081 4.35243 7.33027C4.10002 7.97787 3.9282 8.71796 3.87942 9.80148C3.83084 10.8875 3.81812 11.2348 3.81812 14C3.81812 16.7652 3.83042 17.1112 3.87963 18.1972C3.92948 19.2812 4.10108 20.0211 4.35264 20.6684C4.61291 21.3381 4.96078 21.9062 5.52691 22.4721C6.09262 23.0385 6.66067 23.3872 7.32989 23.6473C7.97769 23.8991 8.71775 24.0707 9.80145 24.1203C10.8875 24.1697 11.2343 24.1818 13.9992 24.1818C16.7645 24.1818 17.1105 24.1697 18.1965 24.1203C19.2804 24.0707 20.0211 23.8991 20.6689 23.6473C21.3384 23.3872 21.9056 23.0385 22.4713 22.4721C23.0376 21.9062 23.3855 21.3381 23.6464 20.6687C23.8967 20.0211 24.0685 19.281 24.1194 18.1974C24.1682 17.1114 24.1809 16.7652 24.1809 14C24.1809 11.2348 24.1682 10.8878 24.1194 9.80169C24.0685 8.71775 23.8967 7.97787 23.6464 7.33048C23.3855 6.66081 23.0376 6.09275 22.4713 5.52681C21.9049 4.96045 21.3386 4.61257 20.6683 4.35272C20.0192 4.10093 19.279 3.92933 18.195 3.87969C17.109 3.83027 16.7633 3.81818 13.9973 3.81818H14.0005ZM13.0871 5.65302C13.3582 5.6526 13.6607 5.65302 14.0005 5.65302C16.7189 5.65302 17.0411 5.66278 18.1147 5.71157C19.1074 5.75696 19.6461 5.92284 20.005 6.06221C20.4802 6.24675 20.8189 6.46736 21.175 6.82372C21.5314 7.18008 21.752 7.51948 21.937 7.99463C22.0763 8.35312 22.2424 8.8919 22.2876 9.88463C22.3364 10.958 22.347 11.2804 22.347 13.9977C22.347 16.7149 22.3364 17.0374 22.2876 18.1107C22.2422 19.1034 22.0763 19.6422 21.937 20.0007C21.7524 20.4758 21.5314 20.8142 21.175 21.1703C20.8187 21.5267 20.4804 21.7473 20.005 21.9318C19.6465 22.0718 19.1074 22.2373 18.1147 22.2827C17.0414 22.3315 16.7189 22.3421 14.0005 22.3421C11.2818 22.3421 10.9596 22.3315 9.8863 22.2827C8.8936 22.2369 8.35483 22.071 7.99572 21.9316C7.52058 21.7471 7.1812 21.5265 6.82484 21.1701C6.46849 20.8138 6.24789 20.4752 6.06293 19.9998C5.92357 19.6414 5.75748 19.1026 5.7123 18.1098C5.66351 17.0365 5.65376 16.7141 5.65376 13.9951C5.65376 11.2761 5.66351 10.9554 5.7123 9.88208C5.75769 8.88936 5.92357 8.35057 6.06293 7.99166C6.24747 7.51651 6.46849 7.17711 6.82484 6.82075C7.1812 6.46439 7.52058 6.24378 7.99572 6.05881C8.35461 5.91881 8.8936 5.75336 9.8863 5.70775C10.8255 5.66533 11.1895 5.6526 13.0871 5.65048V5.65302ZM19.4353 7.34363C18.7608 7.34363 18.2135 7.89027 18.2135 8.56502C18.2135 9.23957 18.7608 9.78684 19.4353 9.78684C20.1098 9.78684 20.6571 9.23957 20.6571 8.56502C20.6571 7.89048 20.1098 7.34321 19.4353 7.34321V7.34363ZM14.0005 8.77121C11.113 8.77121 8.77184 11.1124 8.77184 14C8.77184 16.8876 11.113 19.2277 14.0005 19.2277C16.888 19.2277 19.2283 16.8876 19.2283 14C19.2283 11.1124 16.8878 8.77121 14.0003 8.77121H14.0005ZM14.0005 10.6061C15.8747 10.6061 17.3943 12.1255 17.3943 14C17.3943 15.8743 15.8747 17.3939 14.0005 17.3939C12.126 17.3939 10.6066 15.8743 10.6066 14C10.6066 12.1255 12.126 10.6061 14.0005 10.6061Z" fill="#F3F3F3"/>
</g>
<defs>
<radialGradient id="paint0_radial_62_644" cx="0" cy="0" r="1" gradientUnits="userSpaceOnUse" gradientTransform="translate(7.53828 29.9093) rotate(-90) scale(27.3273 25.4227)">
<stop stop-color="#FFDD55"/>
<stop offset="0.1" stop-color="#FFDD55"/>
<stop offset="0.5" stop-color="#FF543E"/>
<stop offset="1" stop-color="#C837AB"/>
</radialGradient>
<radialGradient id="paint1_radial_62_644" cx="0" cy="0" r="1" gradientUnits="userSpaceOnUse" gradientTransform="translate(-4.40753 2.19846) rotate(78.678) scale(12.2155 50.3642)">
<stop stop-color="#3771C8"/>
<stop offset="0.128" stop-color="#3771C8"/>
<stop offset="1" stop-color="#6600FF" stop-opacity="0"/>
</radialGradient>
<clipPath id="clip0_62_644">
<rect width="28" height="28" fill="white"/>
</clipPath>
</defs>
</svg>
