<svg width="28" height="28" viewBox="0 0 28 28" fill="none" xmlns="http://www.w3.org/2000/svg">
<g id="linkedin-app 1" clip-path="url(#clip0_62_648)">
<path id="Vector" fill-rule="evenodd" clip-rule="evenodd" d="M6.32324 0H21.6768C23.3523 0.00483206 24.9579 0.675685 26.1427 1.866C27.3274 3.05632 27.9952 4.66935 28 6.35271V21.6496C27.9946 23.3325 27.3266 24.945 26.1419 26.1348C24.9571 27.3246 23.3519 27.9952 21.6768 28H6.32324C4.64809 27.9952 3.04288 27.3246 1.85815 26.1348C0.673417 24.945 0.00541045 23.3325 0 21.6496V6.35271C0.00480964 4.66935 0.672551 3.05632 1.85735 1.866C3.04215 0.675685 4.64769 0.00483206 6.32324 0V0Z" fill="#0A66C2"/>
<path id="Vector_2" fill-rule="evenodd" clip-rule="evenodd" d="M11.2087 10.8534H14.7474V12.6848H14.7975C15.292 11.7966 16.4951 10.8534 18.293 10.8534C22.0277 10.8534 22.7181 13.1885 22.7181 16.2263V22.65H19.029V16.9406C19.029 15.6334 19.0016 13.9508 17.1104 13.9508C15.2191 13.9508 14.8955 15.3724 14.8955 16.8467V22.6614H11.2087V10.8534ZM9.11458 7.27757C9.11458 7.65881 9.00206 8.03148 8.79124 8.34847C8.58042 8.66546 8.28077 8.91252 7.93019 9.05841C7.57961 9.2043 7.19384 9.24247 6.82166 9.1681C6.44948 9.09372 6.10762 8.91014 5.8393 8.64057C5.57097 8.37099 5.38824 8.02753 5.31421 7.65362C5.24018 7.27971 5.27817 6.89214 5.42339 6.53993C5.56861 6.18771 5.81452 5.88667 6.13004 5.67487C6.44555 5.46306 6.8165 5.35001 7.19596 5.35001C7.70463 5.35062 8.19229 5.5539 8.55197 5.91525C8.91165 6.27661 9.11398 6.76654 9.11458 7.27757ZM5.2819 10.8534H9.11458V22.65H5.2819V10.8534Z" fill="#F3F3F3"/>
</g>
<defs>
<clipPath id="clip0_62_648">
<rect width="28" height="28" fill="white"/>
</clipPath>
</defs>
</svg>
