<svg width="28" height="28" viewBox="0 0 28 28" fill="none" xmlns="http://www.w3.org/2000/svg">
<g id="twitter-app 1" clip-path="url(#clip0_62_641)">
<path id="Vector" fill-rule="evenodd" clip-rule="evenodd" d="M6.32324 0H21.6768C23.3523 0.00483206 24.9579 0.675685 26.1427 1.866C27.3274 3.05632 27.9952 4.66935 28 6.35271V21.6496C27.9946 23.3325 27.3266 24.945 26.1419 26.1348C24.9571 27.3246 23.3519 27.9952 21.6768 28H6.32324C4.64809 27.9952 3.04288 27.3246 1.85815 26.1348C0.673417 24.945 0.00541045 23.3325 0 21.6496V6.35271C0.00480964 4.66935 0.672551 3.05632 1.85735 1.866C3.04215 0.675685 4.64769 0.00483206 6.32324 0V0Z" fill="#1CA1F1"/>
<path id="Vector_2" fill-rule="evenodd" clip-rule="evenodd" d="M23.3675 8.16352C22.667 8.47653 21.9233 8.68107 21.1618 8.77017C21.9626 8.2877 22.5631 7.53082 22.8525 6.63887C22.0977 7.0881 21.2726 7.40547 20.4121 7.57747C19.885 7.01334 19.2014 6.62127 18.4499 6.45208C17.6984 6.2829 16.9137 6.34439 16.1974 6.6286C15.4811 6.9128 14.8662 7.40661 14.4326 8.04603C13.999 8.68544 13.7665 9.44097 13.7653 10.2147C13.7655 10.5105 13.7983 10.8053 13.8633 11.0938C12.3355 11.0166 10.841 10.6174 9.47678 9.92205C8.1126 9.22672 6.90927 8.25084 5.94499 7.0578C5.60307 7.64709 5.423 8.317 5.42318 8.9991C5.42365 9.63333 5.57986 10.2576 5.87797 10.8167C6.17607 11.3758 6.60687 11.8523 7.13216 12.2041C6.52209 12.1831 5.92558 12.0176 5.39128 11.721V11.7714C5.38853 12.6648 5.69434 13.5314 6.25655 14.2236C6.81876 14.9158 7.60256 15.3906 8.47428 15.567C8.14372 15.6571 7.80281 15.7033 7.46029 15.7044C7.21711 15.7028 6.97457 15.6791 6.73568 15.6334C6.98172 16.3999 7.45974 17.0702 8.10309 17.5508C8.74644 18.0313 9.52302 18.2982 10.3245 18.3141C8.7114 19.5843 6.66303 20.1605 4.62793 19.9166C6.38523 21.0521 8.43111 21.6546 10.5205 21.6519C17.5843 21.6519 21.458 15.7685 21.458 10.6634C21.458 10.494 21.458 10.3292 21.4466 10.162C22.1996 9.61862 22.8488 8.94314 23.363 8.1681L23.3675 8.16352Z" fill="#F3F3F3"/>
</g>
<defs>
<clipPath id="clip0_62_641">
<rect width="28" height="28" fill="white"/>
</clipPath>
</defs>
</svg>
