<svg width="28" height="28" viewBox="0 0 28 28" fill="none" xmlns="http://www.w3.org/2000/svg">
<g clip-path="url(#clip0_62_566)">
<path fill-rule="evenodd" clip-rule="evenodd" d="M6.32324 0H21.6768C23.3523 0.00483206 24.9579 0.675685 26.1427 1.866C27.3274 3.05632 27.9952 4.66935 28 6.35271V21.6496C27.9946 23.3325 27.3266 24.945 26.1419 26.1348C24.9571 27.3246 23.3519 27.9952 21.6768 28H6.32324C4.64809 27.9952 3.04288 27.3246 1.85815 26.1348C0.673417 24.945 0.00541045 23.3325 0 21.6496V6.35271C0.00480964 4.66935 0.672551 3.05632 1.85735 1.866C3.04215 0.675685 4.64769 0.00483206 6.32324 0V0Z" fill="#1CA1F1"/>
<path fill-rule="evenodd" clip-rule="evenodd" d="M23.3675 8.16329C22.667 8.4763 21.9233 8.68084 21.1618 8.76995C21.9626 8.28748 22.5631 7.5306 22.8525 6.63864C22.0977 7.08788 21.2726 7.40524 20.4121 7.57724C19.885 7.01311 19.2014 6.62105 18.4499 6.45186C17.6984 6.28267 16.9137 6.34417 16.1974 6.62837C15.4811 6.91258 14.8662 7.40639 14.4326 8.0458C13.999 8.68521 13.7665 9.44075 13.7653 10.2145C13.7655 10.5102 13.7983 10.8051 13.8633 11.0936C12.3355 11.0164 10.841 10.6172 9.47678 9.92183C8.1126 9.2265 6.90927 8.25061 5.94499 7.05758C5.60307 7.64686 5.423 8.31678 5.42318 8.99887C5.42365 9.63311 5.57986 10.2574 5.87797 10.8165C6.17607 11.3755 6.60687 11.8521 7.13216 12.2038C6.52209 12.1829 5.92558 12.0174 5.39128 11.7208V11.7712C5.38853 12.6645 5.69434 13.5312 6.25655 14.2234C6.81876 14.9155 7.60256 15.3903 8.47428 15.5668C8.14372 15.6569 7.80281 15.7031 7.46029 15.7041C7.21711 15.7026 6.97457 15.6789 6.73568 15.6332C6.98172 16.3997 7.45974 17.07 8.10309 17.5506C8.74644 18.0311 9.52302 18.298 10.3245 18.3139C8.7114 19.584 6.66303 20.1603 4.62793 19.9164C6.38523 21.0519 8.43111 21.6544 10.5205 21.6516C17.5843 21.6516 21.458 15.7682 21.458 10.6632C21.458 10.4938 21.458 10.3289 21.4466 10.1618C22.1996 9.61839 22.8488 8.94292 23.363 8.16787L23.3675 8.16329Z" fill="#F3F3F3"/>
</g>
<defs>
<clipPath id="clip0_62_566">
<rect width="28" height="28" fill="white"/>
</clipPath>
</defs>
</svg>
