<svg width="146" height="41" viewBox="0 0 146 41" fill="none" xmlns="http://www.w3.org/2000/svg">
<g clip-path="url(#clip0_126_317)">
<path d="M5.15625 37.3101C5.15625 38.1174 4.9707 38.7668 4.59961 39.2583C4.22852 39.7466 3.73047 39.9907 3.10547 39.9907C2.43815 39.9907 1.9222 39.7547 1.55762 39.2827L1.51367 39.8931H0.683594V32.3931H1.58691V35.1909C1.9515 34.7384 2.45443 34.5122 3.0957 34.5122C3.73698 34.5122 4.23991 34.7547 4.60449 35.2397C4.97233 35.7248 5.15625 36.3888 5.15625 37.2319V37.3101ZM4.25293 37.2075C4.25293 36.5923 4.13411 36.117 3.89648 35.7817C3.65885 35.4465 3.31706 35.2788 2.87109 35.2788C2.27539 35.2788 1.84733 35.5555 1.58691 36.1089V38.394C1.86361 38.9474 2.29492 39.2241 2.88086 39.2241C3.3138 39.2241 3.65072 39.0565 3.8916 38.7212C4.13249 38.3859 4.25293 37.8813 4.25293 37.2075ZM7.96875 38.5698L9.19922 34.6099H10.166L8.04199 40.7085C7.71322 41.5874 7.19076 42.0269 6.47461 42.0269L6.30371 42.0122L5.9668 41.9487V41.2163L6.21094 41.2358C6.51693 41.2358 6.75456 41.174 6.92383 41.0503C7.09635 40.9266 7.23796 40.7004 7.34863 40.3716L7.54883 39.8345L5.66406 34.6099H6.65039L7.96875 38.5698ZM19.0625 39.8931H18.1201L14.541 34.4146V39.8931H13.5986V32.7837H14.541L18.1299 38.2866V32.7837H19.0625V39.8931ZM24.7412 38.0376H21.7627L21.0938 39.8931H20.127L22.8418 32.7837H23.6621L26.3818 39.8931H25.4199L24.7412 38.0376ZM22.0459 37.2661H24.4629L23.252 33.9409L22.0459 37.2661ZM28.2764 37.1099V39.8931H27.3389V32.7837H29.9609C30.7389 32.7837 31.3477 32.9823 31.7871 33.3794C32.2298 33.7765 32.4512 34.3022 32.4512 34.9565C32.4512 35.6466 32.2347 36.1789 31.8018 36.5532C31.3721 36.9243 30.7552 37.1099 29.9512 37.1099H28.2764ZM28.2764 36.3433H29.9609C30.4622 36.3433 30.8464 36.2261 31.1133 35.9917C31.3802 35.7541 31.5137 35.4123 31.5137 34.9663C31.5137 34.5431 31.3802 34.2046 31.1133 33.9507C30.8464 33.6968 30.4801 33.5649 30.0146 33.5552H28.2764V36.3433ZM36.8994 38.0376H33.9209L33.252 39.8931H32.2852L35 32.7837H35.8203L38.54 39.8931H37.5781L36.8994 38.0376ZM34.2041 37.2661H36.6211L35.4102 33.9409L34.2041 37.2661Z" fill="#AFAFAF"/>
<path d="M50.4896 28.8555L55.823 40.2732H54.5891L52.7913 36.5157H47.8554L46.0732 40.2732H44.8003L50.2013 28.8555H50.4896ZM50.3467 31.2817L48.3853 35.4181H52.2951L50.3467 31.2817Z" fill="#AFAFAF"/>
<path d="M57.6335 28.8555H58.7766V35.7502C58.7647 36.261 58.7803 36.7721 58.8234 37.2812C58.8669 37.6831 59.0068 38.0685 59.2312 38.4048C59.4765 38.7394 59.8064 39.0027 60.1872 39.1677C60.5919 39.3653 61.0358 39.47 61.4862 39.4739C61.8623 39.4742 62.2339 39.3918 62.5747 39.2326C62.9113 39.0785 63.2088 38.8505 63.445 38.5657C63.6904 38.2608 63.8676 37.9069 63.9646 37.5277C64.0662 36.9375 64.1054 36.3383 64.0815 35.7398V28.8555H65.2063V35.7502C65.2305 36.5857 65.1298 37.42 64.9076 38.2258C64.6864 38.8823 64.2683 39.4549 63.71 39.8658C63.0877 40.3409 62.3211 40.5883 61.5381 40.5664C60.6988 40.5902 59.8718 40.3595 59.1663 39.9047C58.5319 39.4979 58.0632 38.8788 57.844 38.1583C57.7037 37.7146 57.6335 36.9102 57.6335 35.7502V28.8555Z" fill="#AFAFAF"/>
<path d="M66.8848 29.9739V28.8555H73.1508V29.9739H70.6023V40.2784H69.4359V29.9739H66.8848Z" fill="#AFAFAF"/>
<path d="M88.1169 40.2786L89.7536 28.8608H89.9406L94.5882 38.2337L99.1942 28.8608H99.3761L101.023 40.2786H99.9008L98.7708 32.1097L94.7285 40.2786H94.4349L90.3433 32.0474L89.221 40.2786H88.1169Z" fill="#AFAFAF"/>
<path d="M115.971 29.9739V28.8555H122.237V29.9739H119.689V40.2784H118.522V29.9739H115.971Z" fill="#AFAFAF"/>
<path d="M123.723 28.8555H124.866V40.2732H123.723V28.8555Z" fill="#AFAFAF"/>
<path d="M126.615 28.8555H127.859L131.649 37.6783L135.499 28.8555H136.744L131.769 40.2732H131.509L126.615 28.8555Z" fill="#AFAFAF"/>
<path d="M138.671 28.8555H145.221V29.9739H139.814V33.5549H145.179V34.6707H139.814V39.16H145.179V40.2784H138.671V28.8555Z" fill="#AFAFAF"/>
<path d="M80.3442 28.8037C79.2026 28.7831 78.0807 29.1025 77.1216 29.7211C76.1624 30.3398 75.4094 31.2298 74.9585 32.2776C74.5076 33.3254 74.3793 34.4836 74.5898 35.6045C74.8004 36.7254 75.3404 37.7583 76.1409 38.5715C76.9414 39.3848 77.9662 39.9415 79.0847 40.1707C80.2032 40.4 81.3647 40.2914 82.4211 39.8587C83.4775 39.4261 84.3811 38.6891 85.0166 37.7416C85.6521 36.794 85.9907 35.679 85.9894 34.5385C86.0011 33.0305 85.4132 31.5796 84.3548 30.5043C83.2963 29.429 81.8538 28.8174 80.3442 28.8037ZM83.246 33.8716L80.1935 39.3936C80.185 39.4085 80.1717 39.4201 80.1559 39.4267C80.14 39.4333 80.1224 39.4344 80.1058 39.43C80.0892 39.4255 80.0746 39.4157 80.0641 39.4021C80.0537 39.3885 80.048 39.3718 80.048 39.3547L80.0299 35.5505H77.5073C77.4935 35.5495 77.4801 35.5451 77.4684 35.5377C77.4567 35.5302 77.4471 35.52 77.4404 35.5079C77.4337 35.4957 77.4301 35.4821 77.43 35.4683C77.4299 35.4544 77.4333 35.4408 77.4398 35.4285L80.5572 29.6989C80.565 29.6822 80.5786 29.6688 80.5953 29.6611C80.6121 29.6534 80.6311 29.6519 80.6489 29.6569C80.6667 29.6619 80.6821 29.673 80.6925 29.6883C80.7028 29.7036 80.7073 29.7221 80.7053 29.7404L80.7261 33.7522H83.1733C83.1864 33.7525 83.1993 33.7559 83.2108 33.7623C83.2223 33.7687 83.2321 33.7777 83.2393 33.7888C83.2464 33.7998 83.2508 33.8124 83.252 33.8254C83.2532 33.8385 83.2511 33.8517 83.246 33.8638V33.8716Z" fill="#AFAFAF"/>
<path d="M0 20.2405V0.495605H4.10982C7.06619 0.495605 9.21203 0.733475 10.5473 1.20921C12.3995 1.82902 13.9853 3.05987 15.0442 4.6994C16.1249 6.35497 16.6644 8.32799 16.6627 10.6185C16.7018 12.442 16.2592 14.2437 15.3794 15.8421C14.6172 17.2528 13.4586 18.4101 12.0463 19.1714C10.6798 19.8841 8.7652 20.2405 6.30242 20.2405H0ZM1.89644 18.3747H4.17996C6.91292 18.3747 8.80849 18.2017 9.86669 17.8557C11.2979 17.4158 12.5354 16.5001 13.3738 15.2608C14.2259 14.0048 14.652 12.4686 14.652 10.6522C14.652 8.74924 14.1904 7.12221 13.2673 5.77111C12.3466 4.42283 10.9813 3.44017 9.40947 2.99453C8.17981 2.61913 6.14482 2.43056 3.30448 2.42883H1.90683L1.89644 18.3747Z" fill="#AFAFAF"/>
<path d="M32.4968 15.3985L34.0815 16.2315C33.6325 17.1556 33.0219 17.9921 32.2786 18.7018C31.6101 19.3201 30.8298 19.8053 29.9794 20.1317C29.054 20.4714 28.0738 20.6377 27.088 20.6221C24.7014 20.6221 22.8353 19.8436 21.4896 18.2867C20.1863 16.8248 19.4717 14.9323 19.4841 12.9748C19.4653 11.1766 20.0682 9.42693 21.1909 8.02109C22.6353 6.17522 24.5681 5.25316 26.9893 5.25489C29.4832 5.25489 31.4749 6.19944 32.9644 8.08856C34.0243 9.42235 34.5629 11.0866 34.5803 13.0812H21.4091C21.4437 14.7783 21.9858 16.1692 23.0353 17.2539C23.5346 17.7825 24.1395 18.2005 24.8108 18.4807C25.482 18.761 26.2048 18.8973 26.9321 18.8809C27.6702 18.8824 28.4027 18.7542 29.0962 18.502C29.7529 18.2683 30.3613 17.9165 30.8913 17.4641C31.527 16.8598 32.0682 16.1635 32.4968 15.3985ZM32.4968 11.4646C32.306 10.595 31.9323 9.77592 31.4005 9.06166C30.8871 8.43703 30.2351 7.9404 29.4962 7.61109C28.7203 7.24888 27.8743 7.06109 27.0179 7.06096C25.6535 7.03524 24.3306 7.52984 23.3185 8.44406C22.5651 9.11702 21.9953 10.1239 21.6091 11.4646H32.4968Z" fill="#AFAFAF"/>
<path d="M36.6897 5.63867H38.6927L43.6 16.2779L48.4502 5.63867H50.4662L43.7741 20.2404H43.4234L36.6897 5.63867Z" fill="#AFAFAF"/>
<path d="M65.6402 15.3985L67.2249 16.2315C66.7759 17.1556 66.1654 17.9921 65.422 18.7018C64.7551 19.3195 63.9766 19.8047 63.1281 20.1317C62.2027 20.4714 61.2225 20.6377 60.2367 20.6221C57.8501 20.6221 55.984 19.8436 54.6383 18.2867C53.3293 16.8271 52.6091 14.9343 52.6171 12.9748C52.5984 11.1766 53.2012 9.42693 54.3239 8.02109C55.7683 6.17522 57.7011 5.25316 60.1224 5.25489C62.6163 5.25489 64.608 6.19944 66.0974 8.08856C67.1574 9.42235 67.696 11.0866 67.7133 13.0812H54.5551C54.588 14.7783 55.1301 16.1692 56.1814 17.2539C56.6807 17.7825 57.2855 18.2005 57.9568 18.4807C58.6281 18.761 59.3508 18.8973 60.0782 18.8809C60.8202 18.8811 61.5563 18.7502 62.2526 18.4943C62.9094 18.2605 63.5177 17.9087 64.0477 17.4563C64.6783 16.8534 65.215 16.1599 65.6402 15.3985ZM65.6402 11.4646C65.4495 10.595 65.0758 9.77592 64.5439 9.06166C64.0305 8.43703 63.3786 7.9404 62.6397 7.61109C61.8598 7.24702 61.0092 7.05918 60.1483 7.06096C58.784 7.03524 57.4611 7.52984 56.449 8.44406C55.6956 9.11702 55.1258 10.1239 54.7396 11.4646H65.6402Z" fill="#AFAFAF"/>
<path d="M70.9346 0H72.818V20.2405H70.9346V0Z" fill="#AFAFAF"/>
<path d="M83.6511 5.26254C84.7067 5.23723 85.7551 5.44292 86.7226 5.86519C87.6902 6.28746 88.5535 6.91609 89.2521 7.70697C90.5774 9.1387 91.3002 11.025 91.2707 12.9747C91.289 14.969 90.5221 16.8907 89.1352 18.3255C87.7133 19.8513 85.8844 20.6142 83.6485 20.6142C81.4126 20.6142 79.5794 19.8513 78.1488 18.3255C76.7637 16.8898 75.9978 14.9685 76.016 12.9747C75.9867 11.0266 76.7096 9.14201 78.0345 7.71216C78.7346 6.91858 79.6003 6.28795 80.5707 5.86472C81.5411 5.44149 82.5926 5.23593 83.6511 5.26254ZM83.6511 7.10235C82.8949 7.09198 82.1449 7.23968 81.4492 7.53596C80.7535 7.83225 80.1275 8.27057 79.6114 8.8228C79.0643 9.37445 78.6339 10.0305 78.3461 10.7518C78.0582 11.4732 77.9187 12.245 77.9358 13.0214C77.9326 14.0577 78.2013 15.0768 78.7152 15.977C79.1986 16.8599 79.9181 17.5912 80.7935 18.0893C81.6722 18.5776 82.6611 18.8339 83.6667 18.8339C84.6723 18.8339 85.6612 18.5776 86.5399 18.0893C87.4146 17.5904 88.134 16.8593 88.6182 15.977C89.1321 15.0768 89.4009 14.0577 89.3976 13.0214C89.4083 12.2413 89.2607 11.4672 88.9638 10.7456C88.6669 10.024 88.2268 9.36992 87.67 8.8228C87.1558 8.27381 86.5331 7.83743 85.8413 7.54128C85.1495 7.24513 84.4037 7.09567 83.6511 7.10235Z" fill="#AFAFAF"/>
<path d="M94.7778 5.63867H96.6613V8.32443C97.3307 7.36993 98.2129 6.58376 99.2384 6.02791C100.236 5.50947 101.348 5.24644 102.473 5.2624C103.468 5.24869 104.455 5.44079 105.373 5.82663C106.29 6.21247 107.118 6.7837 107.804 7.50443C108.52 8.2072 109.085 9.04803 109.466 9.97586C109.847 10.9037 110.035 11.8992 110.019 12.9019C110.038 13.9151 109.852 14.9216 109.473 15.8614C109.093 16.8012 108.528 17.6551 107.811 18.372C106.733 19.4862 105.332 20.2329 103.805 20.5063C102.278 20.7798 100.704 20.5659 99.3059 19.8952C98.2797 19.372 97.3779 18.6349 96.6613 17.7337V25.5885H94.7778V5.63867ZM102.312 7.07367C101.545 7.05738 100.784 7.20054 100.076 7.49404C99.3679 7.78755 98.7288 8.22499 98.1992 8.77854C97.6503 9.33657 97.2196 9.99946 96.933 10.7276C96.6465 11.4557 96.5099 12.234 96.5314 13.0161C96.5149 14.0601 96.7709 15.0904 97.2744 16.0054C97.7731 16.8933 98.5123 17.6227 99.4072 18.1099C100.299 18.6202 101.31 18.8886 102.338 18.8884C103.343 18.8939 104.332 18.6247 105.195 18.1099C106.088 17.5828 106.822 16.8254 107.32 15.9172C107.836 15.0192 108.107 14.002 108.107 12.9668C108.107 11.9315 107.836 10.9143 107.32 10.0163C106.828 9.11941 106.101 8.37233 105.218 7.85427C104.335 7.33622 103.328 7.06649 102.304 7.07367H102.312Z" fill="#AFAFAF"/>
<path d="M125.838 15.3985L127.425 16.2315C126.975 17.155 126.365 17.9915 125.622 18.7018C124.953 19.3201 124.172 19.8054 123.321 20.1317C122.395 20.4714 121.415 20.6377 120.429 20.6221C118.044 20.6221 116.179 19.8436 114.833 18.2867C113.525 16.8273 112.805 14.9342 112.815 12.9748C112.796 11.1761 113.4 9.42616 114.524 8.02109C115.969 6.17522 117.901 5.25316 120.323 5.25489C122.813 5.25489 124.805 6.19944 126.298 8.08856C127.356 9.42235 127.894 11.0866 127.911 13.0812H114.75C114.787 14.7783 115.33 16.1692 116.379 17.2539C116.878 17.7825 117.483 18.2005 118.155 18.4807C118.826 18.761 119.549 18.8973 120.276 18.8809C121.017 18.8809 121.752 18.75 122.448 18.4943C123.105 18.2603 123.714 17.9085 124.245 17.4563C124.876 16.8534 125.413 16.1598 125.838 15.3985ZM125.838 11.4646C125.649 10.5943 125.276 9.77473 124.742 9.06166C124.228 8.43703 123.576 7.9404 122.837 7.61109C122.058 7.24707 121.209 7.05923 120.349 7.06096C118.983 7.03391 117.658 7.5286 116.644 8.44406C115.891 9.11702 115.322 10.1239 114.937 11.4646H125.838Z" fill="#AFAFAF"/>
<path d="M146.013 0V20.2405H144.158V17.7338C143.439 18.6362 142.533 19.3733 141.503 19.8954C140.102 20.5658 138.526 20.7794 136.997 20.506C135.468 20.2327 134.063 19.4862 132.982 18.3721C132.266 17.655 131.702 16.8009 131.325 15.861C130.947 14.921 130.763 13.9146 130.784 12.902C130.77 11.8986 130.96 10.9027 131.342 9.97484C131.725 9.04698 132.293 8.20653 133.011 7.50456C133.698 6.78394 134.526 6.21282 135.444 5.82702C136.363 5.44122 137.351 5.24904 138.347 5.26253C139.479 5.24605 140.598 5.50899 141.604 6.02804C142.627 6.58176 143.505 7.36855 144.166 8.32456V0H146.013ZM138.492 7.0738C137.469 7.06741 136.463 7.33693 135.581 7.85394C134.698 8.37094 133.972 9.11625 133.478 10.0113C132.962 10.909 132.69 11.9263 132.69 12.9617C132.69 13.9971 132.962 15.0144 133.478 15.9121C133.978 16.8214 134.714 17.579 135.609 18.1049C136.473 18.6187 137.461 18.8878 138.466 18.8834C139.493 18.8838 140.503 18.6154 141.394 18.1049C142.286 17.6153 143.023 16.8864 143.522 16.0004C144.025 15.0853 144.281 14.055 144.265 13.011C144.286 12.2287 144.149 11.4501 143.862 10.7219C143.575 9.99377 143.144 9.33103 142.594 8.77348C142.065 8.22255 141.427 7.78709 140.721 7.49455C140.015 7.20202 139.256 7.05876 138.492 7.0738Z" fill="#AFAFAF"/>
<path d="M108.986 40.3099C112.161 40.3099 114.735 37.7389 114.735 34.5673C114.735 31.3958 112.161 28.8247 108.986 28.8247C105.811 28.8247 103.237 31.3958 103.237 34.5673C103.237 37.7389 105.811 40.3099 108.986 40.3099Z" fill="#AFAFAF"/>
</g>
<defs>
<clipPath id="clip0_126_317">
<rect width="146" height="41" fill="white"/>
</clipPath>
</defs>
</svg>
