<svg width="250" height="150" viewBox="0 0 250 150" fill="none" xmlns="http://www.w3.org/2000/svg">
<path d="M134.464 64.99V61.1612C134.468 60.5784 134.907 60.1886 135.438 60.1886H152.59C153.142 60.1886 153.58 60.5894 153.58 61.1577V64.4473C153.574 64.9903 153.11 65.7126 152.289 66.856L143.397 79.5546C146.696 79.4773 150.188 79.9707 153.186 81.659C153.861 82.0409 154.045 82.5976 154.096 83.1511V87.2458C154.096 87.8117 153.479 88.4655 152.836 88.125C147.551 85.3497 140.545 85.048 134.708 88.1582C134.11 88.4781 133.487 87.8376 133.487 87.2716V83.3763C133.487 82.7556 133.497 81.691 134.124 80.7437L144.417 65.9584H135.457C134.91 65.9581 134.47 65.5673 134.464 64.99ZM71.8942 88.9312H66.6751C66.1785 88.9009 65.7783 88.5269 65.7415 88.0493L65.7462 61.2266C65.7462 60.6918 66.1932 60.2606 66.752 60.2606L71.6118 60.2587C72.121 60.2867 72.528 60.6717 72.5615 61.1612V64.6643H72.6571C73.9208 61.2772 76.3112 59.6941 79.5233 59.6941C82.7896 59.6941 84.8299 61.2772 86.2954 64.6643C87.563 61.2772 90.4344 59.6941 93.5066 59.6941C95.7 59.6941 98.0846 60.5989 99.5482 62.6311C101.207 64.8827 100.864 68.1617 100.864 71.0341L100.862 87.9642C100.862 88.5021 100.407 88.9309 99.853 88.9309H94.642C94.1159 88.9006 93.705 88.4837 93.705 87.9697L93.7029 73.7461C93.7029 72.6184 93.7982 69.7996 93.5543 68.7223C93.1618 66.9172 91.9935 66.4093 90.4835 66.4093C89.2224 66.4093 87.9042 67.2564 87.3665 68.6113C86.8333 69.9671 86.8797 72.2197 86.8797 73.7461V87.9636C86.8797 88.5016 86.4287 88.9304 85.8728 88.9304H80.6608C80.136 88.9001 79.7224 88.4831 79.7224 87.9692L79.7158 73.7455C79.7158 70.7521 80.2056 66.3526 76.5048 66.3526C72.7504 66.3526 72.8976 70.6461 72.8976 73.7455L72.8955 87.9631C72.895 88.5024 72.453 88.9312 71.8942 88.9312ZM168.352 59.6944C176.09 59.6944 180.288 66.3539 180.288 74.8194C180.288 82.9984 175.651 89.4974 168.352 89.4974C160.749 89.4974 156.605 82.8257 156.605 74.5338C156.605 66.186 160.796 59.6944 168.352 59.6944ZM168.401 65.1664C164.547 65.1664 164.303 70.4214 164.303 73.6846C164.303 76.9597 164.254 83.9552 168.351 83.9552C172.386 83.9552 172.578 78.3136 172.578 74.8798C172.578 72.6192 172.483 69.9114 171.799 67.7651C171.216 65.8996 170.047 65.1664 168.401 65.1664ZM190.329 88.9312H185.125C184.6 88.9009 184.189 88.4839 184.189 87.9699L184.178 61.1374C184.224 60.6453 184.656 60.2603 185.182 60.2603L190.029 60.2585C190.487 60.2827 190.862 60.5947 190.956 61.0119V65.1116H191.055C192.515 61.4465 194.553 59.6939 198.159 59.6939C200.5 59.6939 202.795 60.542 204.256 62.8587C205.612 64.9963 205.612 68.6116 205.612 71.2063V88.0839C205.552 88.5644 205.124 88.9309 204.622 88.9309H199.382C198.906 88.9027 198.511 88.5417 198.451 88.0839V73.5214C198.451 70.5915 198.797 66.2959 195.185 66.2959C193.916 66.2959 192.76 67.1451 192.172 68.4441C191.442 70.0818 191.347 71.7134 191.347 73.5217V87.9644C191.333 88.5024 190.885 88.9312 190.329 88.9312ZM61.6664 84.0098C60.717 82.6862 59.7014 81.6179 59.7014 79.1691V71.0275C59.7014 67.5828 59.9478 64.417 57.4053 62.0414C55.4014 60.1155 52.0829 59.437 49.5416 59.437C44.5745 59.437 39.0356 61.2928 37.872 67.4365C37.7482 68.0937 38.2234 68.4346 38.6517 68.5312L43.7102 69.0799C44.1804 69.0557 44.5258 68.5865 44.6164 68.1169C45.0516 65.9979 46.8227 64.9776 48.8132 64.9776C49.8832 64.9776 51.104 65.3758 51.7418 66.3371C52.4739 67.4091 52.3756 68.8832 52.3756 70.1277V70.8004C49.3466 71.1414 45.3912 71.3666 42.5637 72.6124C39.2921 74.0296 37 76.909 37 81.1551C37 86.5886 40.4152 89.3035 44.8056 89.3035C48.5239 89.3035 50.5463 88.4254 53.4141 85.5032C54.3624 86.8766 54.6719 87.5393 56.4043 88.9879C56.7939 89.1944 57.2913 89.178 57.6382 88.8647L57.6498 88.8774C58.6927 87.9467 60.5897 86.2985 61.6501 85.4053C62.0734 85.0536 61.9986 84.4834 61.6664 84.0098ZM51.3977 81.6625C50.5663 83.1258 49.2513 84.0322 47.7874 84.0322C45.7842 84.0322 44.613 82.504 44.613 80.2474C44.613 75.7996 48.6024 74.9926 52.3764 74.9926V76.1213C52.3764 78.1517 52.4241 79.8508 51.3977 81.6625ZM130.083 84.0098C129.127 82.6862 128.113 81.6179 128.113 79.1691V71.0275C128.113 67.5828 128.357 64.417 125.815 62.0414C123.82 60.1155 120.496 59.437 117.96 59.437C112.994 59.437 107.452 61.2928 106.289 67.4365C106.166 68.0937 106.641 68.4346 107.068 68.5312L112.124 69.0799C112.601 69.0557 112.944 68.5865 113.033 68.1169C113.471 65.9979 115.234 64.9776 117.228 64.9776C118.301 64.9776 119.524 65.3758 120.155 66.3371C120.886 67.4091 120.788 68.8832 120.788 70.1277V70.8004C117.763 71.1414 113.81 71.3666 110.98 72.6124C107.709 74.0296 105.414 76.909 105.414 81.1551C105.414 86.5886 108.827 89.3035 113.223 89.3035C116.932 89.3035 118.965 88.4254 121.829 85.5032C122.776 86.8766 123.088 87.5393 124.82 88.9879C125.212 89.1944 125.705 89.178 126.05 88.8647L126.061 88.8774C127.106 87.9467 129.003 86.2985 130.069 85.4053C130.493 85.0536 130.421 84.4834 130.083 84.0098ZM119.811 81.6625C118.986 83.1258 117.666 84.0322 116.201 84.0322C114.198 84.0322 113.031 82.504 113.031 80.2474C113.031 75.7996 117.015 74.9926 120.789 74.9926V76.1213C120.789 78.1517 120.839 79.8508 119.811 81.6625Z" fill="#F3F3F3"/>
<path d="M141.433 99.3541C131.477 106.468 117.609 110.31 105.374 110.31C88.2356 110.31 72.9598 104.1 61.1904 93.4606C60.1019 92.4764 60.8047 91.3221 62.1582 92.1009C74.9616 99.5131 90.3059 103.85 106.406 103.85C117.263 103.85 128.796 101.685 139.755 97.0181C142.151 95.9957 143.144 98.1296 141.433 99.3541Z" fill="#F9A51B"/>
<path d="M145.687 94.5526C144.428 92.9424 137.397 93.7913 134.238 94.1647C133.287 94.2815 133.132 93.4443 133.999 92.839C139.607 88.9147 148.8 90.0571 149.863 91.3525C150.938 92.685 149.579 101.918 144.325 106.326C143.515 107.008 142.754 106.638 143.111 105.745C144.29 102.784 146.94 96.1571 145.687 94.5526Z" fill="#F9A51B"/>
<path d="M211.548 84.5513C212.136 84.5513 212.636 84.7583 213.048 85.1724C213.46 85.5827 213.668 86.0817 213.668 86.6658C213.668 87.2536 213.461 87.7533 213.048 88.1663C212.637 88.5806 212.138 88.7881 211.548 88.7881C210.96 88.7881 210.461 88.5806 210.05 88.1663C209.64 87.7533 209.435 87.2531 209.435 86.6658C209.435 86.0817 209.64 85.5827 210.054 85.1724C210.467 84.7583 210.966 84.5513 211.548 84.5513ZM214 86.6608C214 85.9846 213.759 85.4084 213.282 84.9327C212.804 84.4564 212.223 84.2183 211.546 84.2183C210.872 84.2183 210.298 84.4564 209.819 84.9327C209.342 85.4108 209.102 85.9862 209.102 86.6608C209.102 87.3409 209.339 87.9208 209.813 88.3986C210.289 88.8804 210.868 89.1212 211.545 89.1212C212.223 89.1212 212.803 88.8804 213.282 88.3986C213.759 87.92 214 87.3404 214 86.6608ZM212.197 86.1315C212.197 86.3335 212.104 86.4709 211.917 86.5447C211.813 86.5853 211.661 86.6033 211.459 86.6033H211.025V85.6442H211.434C211.702 85.6442 211.894 85.6747 212.017 85.7412C212.136 85.8082 212.197 85.9363 212.197 86.1315ZM210.562 85.3108V87.9933H211.025V86.9361H211.404C211.66 86.9361 211.838 86.9659 211.939 87.0215C212.112 87.1238 212.197 87.3264 212.197 87.6376V87.8501L212.207 87.9358L212.213 87.9661C212.217 87.9738 212.219 87.9843 212.221 87.9933H212.661L212.644 87.959C212.63 87.9358 212.623 87.891 212.619 87.8203C212.613 87.7488 212.613 87.6829 212.613 87.6201V87.4253C212.613 87.2897 212.562 87.1505 212.467 87.0073C212.369 86.8659 212.217 86.7784 212.006 86.7459C212.172 86.7196 212.301 86.6769 212.395 86.6162C212.572 86.5012 212.661 86.3251 212.661 86.0864C212.661 85.7499 212.52 85.5236 212.241 85.4071C212.085 85.3435 211.84 85.3113 211.505 85.3113L210.562 85.3108Z" fill="#F3F3F3"/>
</svg>
