<svg width="176" height="48" viewBox="0 0 176 48" fill="none" xmlns="http://www.w3.org/2000/svg">
<g clip-path="url(#clip0_125_227)">
<path d="M175.724 47.7269H0.273193V0.272949H175.724V47.7269Z" fill="#231F20"/>
<path d="M0.274414 47.7269H175.725V0.272949H0.274414V47.7269Z" stroke="black" stroke-width="0.5725"/>
<path d="M171.777 43.8008H4.21875V4.19922H171.777V43.8008Z" fill="#FEDD03"/>
<path d="M171.779 4.19922H4.21997V43.8008H171.779V4.19922Z" stroke="#FEDD03" stroke-width="0.5725"/>
<path d="M15.339 20.8911C12.5991 18.4934 11.4078 16.1089 12.5584 14.7449C13.5244 13.7839 17.3945 14.2811 20.4771 17.1438C23.5598 20.0052 23.8474 22.664 23.2314 23.3997C22.6141 24.1353 18.8747 23.6047 16.655 21.8867C16.0785 21.5183 15.339 20.8911 15.339 20.8911Z" stroke="black" stroke-width="0.72"/>
<path d="M15.6673 21.0677C14.271 19.9636 11.1056 16.8971 11.1464 13.9116C11.1464 12.9316 12.2562 11.1324 14.9697 11.2135C17.682 11.2957 20.2721 12.8898 23.8054 16.6932C27.3411 20.4966 36.7592 31.4012 38.0273 32.8438C39.7544 34.8063 40.5766 36.6055 47.8913 36.6055H161.17" stroke="black" stroke-width="0.72"/>
<path d="M160.515 26.9467C163.255 29.3456 164.446 31.7302 163.296 33.0941C162.33 34.0539 158.459 33.5567 155.376 30.6941C152.293 27.8326 152.007 25.175 152.623 24.4382C153.24 23.7037 156.979 24.2331 159.199 25.9512C159.774 26.3208 160.515 26.9467 160.515 26.9467Z" stroke="black" stroke-width="0.72"/>
<path d="M160.186 26.7691C161.583 27.8731 164.748 30.9408 164.707 33.9251C164.707 34.9076 163.599 36.7055 160.885 36.6232C158.172 36.5422 155.582 34.9469 152.048 31.1447C148.514 27.3425 139.095 16.4356 137.828 14.9941C136.101 13.0304 135.277 11.2325 127.962 11.2325H14.7649" stroke="black" stroke-width="0.72"/>
<path d="M13.7783 14.293H21.1769" stroke="black" stroke-width="0.77125"/>
<path d="M22.656 23.6973H30.0546" stroke="black" stroke-width="0.77125"/>
<path d="M145.8 24.1353H153.526" stroke="black" stroke-width="0.77125"/>
<path d="M154.759 33.5386H162.159" stroke="black" stroke-width="0.77125"/>
<path d="M12.2983 16.9805H20.1356" stroke="black" stroke-width="0.515"/>
<path d="M13.8325 19.3247H22.2175" stroke="black" stroke-width="0.515"/>
<path d="M16.5183 21.7236H28.2461" stroke="black" stroke-width="0.515"/>
<path d="M23.5334 22.4863H28.9041" stroke="black" stroke-width="0.515"/>
<path d="M22.656 19.7607H26.3283" stroke="black" stroke-width="0.515"/>
<path d="M20.5742 17.145H23.9158" stroke="black" stroke-width="0.515"/>
<path d="M19.0388 15.8906H22.8202" stroke="black" stroke-width="0.515"/>
<path d="M11.1465 14.1763H13.504" stroke="black" stroke-width="0.515"/>
<path d="M11.2556 13.3271H19.9151" stroke="black" stroke-width="0.515"/>
<path d="M11.8596 12.2935H18.6542" stroke="black" stroke-width="0.515"/>
<path d="M19.8059 12.8921H135.552" stroke="black" stroke-width="0.515"/>
<path d="M137.25 14.7925H21.8328" stroke="black" stroke-width="0.515"/>
<path d="M23.3142 16.0146H39.3387" stroke="black" stroke-width="0.515"/>
<path d="M24.4097 17.3789H39.3387" stroke="black" stroke-width="0.515"/>
<path d="M25.5051 18.6245H39.3375" stroke="black" stroke-width="0.515"/>
<path d="M26.875 19.9805H39.3386" stroke="black" stroke-width="0.515"/>
<path d="M27.8613 21.3276H39.3386" stroke="black" stroke-width="0.515"/>
<path d="M29.2312 22.7593H39.3385" stroke="black" stroke-width="0.515"/>
<path d="M30.7114 24.2163H39.3385" stroke="black" stroke-width="0.515"/>
<path d="M32.7383 26.687H39.3387" stroke="black" stroke-width="0.515"/>
<path d="M34.5469 28.6479H39.3375" stroke="black" stroke-width="0.515"/>
<path d="M36.1362 30.5557H39.3375" stroke="black" stroke-width="0.515"/>
<path d="M37.4521 32.082H39.3387" stroke="black" stroke-width="0.515"/>
<path d="M38.8772 33.6392H154.678" stroke="black" stroke-width="0.515"/>
<path d="M40.4126 35.0649H156.376" stroke="black" stroke-width="0.515"/>
<path d="M160.598 27.1211H152.926" stroke="black" stroke-width="0.515"/>
<path d="M162.624 29.248H154.075" stroke="black" stroke-width="0.515"/>
<path d="M135.902 17.0356H139.497" stroke="black" stroke-width="0.515"/>
<path d="M140.977 18.7964H135.902" stroke="black" stroke-width="0.515"/>
<path d="M143.114 21.125H135.903" stroke="black" stroke-width="0.515"/>
<path d="M144.486 22.5581H135.903" stroke="black" stroke-width="0.515"/>
<path d="M145.332 23.6885H135.904" stroke="black" stroke-width="0.515"/>
<path d="M152.378 25.8701H147.5" stroke="black" stroke-width="0.515"/>
<path d="M152.596 26.8501H148.158" stroke="black" stroke-width="0.515"/>
<path d="M153.145 27.668H148.98" stroke="black" stroke-width="0.515"/>
<path d="M147.664 26.4141H135.903" stroke="black" stroke-width="0.515"/>
<path d="M149.255 27.9946H135.903" stroke="black" stroke-width="0.515"/>
<path d="M150.076 28.9751H135.903" stroke="black" stroke-width="0.515"/>
<path d="M135.903 30.2305H151.226" stroke="black" stroke-width="0.515"/>
<path d="M151.939 31.2354H135.903" stroke="black" stroke-width="0.515"/>
<path d="M153.254 32.4194H135.903" stroke="black" stroke-width="0.515"/>
<path d="M153.638 32.6294H158.241" stroke="black" stroke-width="0.515"/>
<path d="M152.76 31.7578H156.597" stroke="black" stroke-width="0.515"/>
<path d="M151.993 30.9399H155.445" stroke="black" stroke-width="0.515"/>
<path d="M151.117 30.0122H154.679" stroke="black" stroke-width="0.515"/>
<path d="M156.159 34.8647H164.379" stroke="black" stroke-width="0.515"/>
<path d="M51.8118 27.6742V16.2795H48.6321V27.1281C48.6321 28.3824 47.207 28.9201 46.3309 28.9201C45.8371 28.9201 43.8092 28.1022 43.3178 27.6658L42.0569 30.0647C42.0569 30.0647 44.1939 31.9175 46.6593 31.9175C49.1259 31.9175 50.2765 30.7192 50.7164 30.228C51.1538 29.738 51.8118 28.5457 51.8118 27.6742Z" fill="black"/>
<path d="M54.935 31.9458C55.919 31.9458 56.7185 31.1517 56.7185 30.1717C56.7185 29.1928 55.919 28.4 54.935 28.4C53.951 28.4 53.1516 29.1928 53.1516 30.1717C53.1516 31.1517 53.951 31.9458 54.935 31.9458Z" fill="black"/>
<path d="M74.499 31.9458C75.483 31.9458 76.2824 31.1517 76.2824 30.1717C76.2824 29.1928 75.483 28.4 74.499 28.4C73.515 28.4 72.7156 29.1928 72.7156 30.1717C72.7156 31.1517 73.515 31.9458 74.499 31.9458Z" fill="black"/>
<path d="M67.3419 22.5192C68.242 22.5192 68.9695 21.7932 68.9695 20.9001C68.9695 20.0059 68.242 19.2798 67.3419 19.2798L65.1785 19.2762V22.5061L67.3419 22.5192ZM67.6523 28.8121C68.6231 28.8121 69.4106 28.0765 69.4106 27.1083C69.4106 26.1438 68.6231 25.3593 67.6523 25.3593L65.1785 25.3557V28.8026L67.6523 28.8121ZM65.1785 31.5913H62V15.9999H65.1785C66.5353 15.9999 65.616 16.0046 68.0826 16.0046C71.1653 16.0046 72.3974 18.6622 72.3974 19.7257C72.3974 20.7893 72.6035 22.4251 70.59 23.5696C72.522 24.5509 72.9739 25.9399 72.9739 27.249C72.9739 28.5581 71.9048 31.5842 68.0011 31.5842L65.1785 31.5913Z" fill="black"/>
<path d="M89.9816 16.2795V22.8275H85.432V16.2795H82.2546V31.8638L85.432 31.8495V25.5673H89.9816V31.8638L93.1602 31.8495V16.2795H89.9816Z" fill="black"/>
<path d="M102.038 28.9152C103.193 28.9152 104.11 28.0234 104.11 26.874L104.107 16.2842H107.108V25.6484C107.108 28.0472 107.381 29.2455 106.23 30.4449C105.079 31.6443 103.489 32.2715 102.038 32.2715C100.585 32.2715 98.996 31.6443 97.8442 30.4449C96.6936 29.2455 96.9681 28.0472 96.9681 25.6484V16.2842H99.968L99.9656 26.874C99.9656 28.0234 100.883 28.9152 102.038 28.9152Z" fill="black"/>
<path d="M132.605 16.2854H122.823V19.1898H126.113V31.8638H129.319V19.1898H132.605V16.2854Z" fill="black"/>
<path d="M117.645 31.8232L113.411 23.2364V31.8638H110.45V16.2854H113.411L117.5 23.8087L117.517 23.4606V16.2854H120.476V31.8638H117.66L117.645 31.8232Z" fill="black"/>
</g>
<defs>
<clipPath id="clip0_125_227">
<rect width="176" height="48" fill="white"/>
</clipPath>
</defs>
</svg>
