<svg width="456" height="46" viewBox="0 0 456 46" fill="none" xmlns="http://www.w3.org/2000/svg">
<path d="M130 7.5H220.5" stroke="#C1C1C1" stroke-width="3"/>
<path d="M130 7.5H190.5" stroke="#04FF14" stroke-width="3"/>
<circle cx="19.5" cy="7.5" r="6" stroke="#04FF14" stroke-width="3"/>
<circle cx="123.5" cy="7.5" r="6" stroke="#04FF14" stroke-width="3"/>
<circle cx="227.5" cy="7.5" r="6" stroke="#C1C1C1" stroke-width="3"/>
<circle cx="331.5" cy="7.5" r="6" stroke="#C1C1C1" stroke-width="3"/>
<circle cx="435.5" cy="7.5" r="6" stroke="#C1C1C1" stroke-width="3"/>
<path d="M26 7.5H116.5" stroke="#04FF14" stroke-width="3"/>
<path d="M234 7.5H324.5" stroke="#C1C1C1" stroke-width="3"/>
<path d="M338 7.5H428.5" stroke="#C1C1C1" stroke-width="3"/>
<path d="M9.72 39.434V41H0.666V39.776L5.796 34.826C6.42 34.226 6.84 33.71 7.056 33.278C7.272 32.834 7.38 32.39 7.38 31.946C7.38 31.286 7.146 30.776 6.678 30.416C6.222 30.044 5.562 29.858 4.698 29.858C3.306 29.858 2.232 30.314 1.476 31.226L0.252 30.164C0.744 29.564 1.386 29.096 2.178 28.76C2.982 28.424 3.876 28.256 4.86 28.256C6.18 28.256 7.23 28.574 8.01 29.21C8.79 29.834 9.18 30.686 9.18 31.766C9.18 32.438 9.036 33.074 8.748 33.674C8.46 34.274 7.914 34.958 7.11 35.726L3.258 39.434H9.72ZM16.2952 41.144C15.2992 41.144 14.4112 40.892 13.6312 40.388C12.8632 39.872 12.2572 39.128 11.8132 38.156C11.3692 37.184 11.1472 36.032 11.1472 34.7C11.1472 33.368 11.3692 32.216 11.8132 31.244C12.2572 30.272 12.8632 29.534 13.6312 29.03C14.4112 28.514 15.2992 28.256 16.2952 28.256C17.2792 28.256 18.1552 28.514 18.9232 29.03C19.7032 29.534 20.3152 30.272 20.7592 31.244C21.2032 32.216 21.4252 33.368 21.4252 34.7C21.4252 36.032 21.2032 37.184 20.7592 38.156C20.3152 39.128 19.7032 39.872 18.9232 40.388C18.1552 40.892 17.2792 41.144 16.2952 41.144ZM16.2952 39.542C17.3032 39.542 18.1072 39.128 18.7072 38.3C19.3192 37.472 19.6252 36.272 19.6252 34.7C19.6252 33.128 19.3192 31.928 18.7072 31.1C18.1072 30.272 17.3032 29.858 16.2952 29.858C15.2752 29.858 14.4592 30.272 13.8472 31.1C13.2472 31.928 12.9472 33.128 12.9472 34.7C12.9472 36.272 13.2472 37.472 13.8472 38.3C14.4592 39.128 15.2752 39.542 16.2952 39.542ZM27.0063 28.4V41H25.2243V29.966H22.3803V28.4H27.0063ZM38.9424 28.4V29.624L33.8484 41H31.9404L36.9264 29.966H31.1664V32.216H29.4384V28.4H38.9424Z" fill="#F3F3F3"/>
<path d="M112.72 39.434V41H103.666V39.776L108.796 34.826C109.42 34.226 109.84 33.71 110.056 33.278C110.272 32.834 110.38 32.39 110.38 31.946C110.38 31.286 110.146 30.776 109.678 30.416C109.222 30.044 108.562 29.858 107.698 29.858C106.306 29.858 105.232 30.314 104.476 31.226L103.252 30.164C103.744 29.564 104.386 29.096 105.178 28.76C105.982 28.424 106.876 28.256 107.86 28.256C109.18 28.256 110.23 28.574 111.01 29.21C111.79 29.834 112.18 30.686 112.18 31.766C112.18 32.438 112.036 33.074 111.748 33.674C111.46 34.274 110.914 34.958 110.11 35.726L106.258 39.434H112.72ZM119.295 41.144C118.299 41.144 117.411 40.892 116.631 40.388C115.863 39.872 115.257 39.128 114.813 38.156C114.369 37.184 114.147 36.032 114.147 34.7C114.147 33.368 114.369 32.216 114.813 31.244C115.257 30.272 115.863 29.534 116.631 29.03C117.411 28.514 118.299 28.256 119.295 28.256C120.279 28.256 121.155 28.514 121.923 29.03C122.703 29.534 123.315 30.272 123.759 31.244C124.203 32.216 124.425 33.368 124.425 34.7C124.425 36.032 124.203 37.184 123.759 38.156C123.315 39.128 122.703 39.872 121.923 40.388C121.155 40.892 120.279 41.144 119.295 41.144ZM119.295 39.542C120.303 39.542 121.107 39.128 121.707 38.3C122.319 37.472 122.625 36.272 122.625 34.7C122.625 33.128 122.319 31.928 121.707 31.1C121.107 30.272 120.303 29.858 119.295 29.858C118.275 29.858 117.459 30.272 116.847 31.1C116.247 31.928 115.947 33.128 115.947 34.7C115.947 36.272 116.247 37.472 116.847 38.3C117.459 39.128 118.275 39.542 119.295 39.542ZM130.006 28.4V41H128.224V29.966H125.38V28.4H130.006ZM140.466 34.394C141.186 34.67 141.738 35.066 142.122 35.582C142.506 36.098 142.698 36.716 142.698 37.436C142.698 38.192 142.494 38.852 142.086 39.416C141.678 39.968 141.096 40.394 140.34 40.694C139.584 40.994 138.696 41.144 137.676 41.144C136.668 41.144 135.786 40.994 135.03 40.694C134.286 40.394 133.71 39.968 133.302 39.416C132.894 38.852 132.69 38.192 132.69 37.436C132.69 36.716 132.876 36.098 133.248 35.582C133.632 35.066 134.184 34.67 134.904 34.394C134.328 34.118 133.89 33.752 133.59 33.296C133.29 32.84 133.14 32.3 133.14 31.676C133.14 30.98 133.326 30.374 133.698 29.858C134.082 29.342 134.616 28.946 135.3 28.67C135.984 28.394 136.776 28.256 137.676 28.256C138.588 28.256 139.386 28.394 140.07 28.67C140.766 28.946 141.3 29.342 141.672 29.858C142.056 30.374 142.248 30.98 142.248 31.676C142.248 32.288 142.092 32.828 141.78 33.296C141.48 33.752 141.042 34.118 140.466 34.394ZM137.676 29.714C136.824 29.714 136.152 29.9 135.66 30.272C135.168 30.632 134.922 31.124 134.922 31.748C134.922 32.372 135.162 32.864 135.642 33.224C136.134 33.584 136.812 33.764 137.676 33.764C138.552 33.764 139.236 33.584 139.728 33.224C140.232 32.864 140.484 32.372 140.484 31.748C140.484 31.124 140.226 30.632 139.71 30.272C139.206 29.9 138.528 29.714 137.676 29.714ZM137.676 39.686C138.672 39.686 139.458 39.482 140.034 39.074C140.61 38.654 140.898 38.09 140.898 37.382C140.898 36.686 140.61 36.14 140.034 35.744C139.458 35.336 138.672 35.132 137.676 35.132C136.68 35.132 135.9 35.336 135.336 35.744C134.772 36.14 134.49 36.686 134.49 37.382C134.49 38.09 134.772 38.654 135.336 39.074C135.9 39.482 136.68 39.686 137.676 39.686Z" fill="#F3F3F3"/>
<path d="M216.72 39.434V41H207.666V39.776L212.796 34.826C213.42 34.226 213.84 33.71 214.056 33.278C214.272 32.834 214.38 32.39 214.38 31.946C214.38 31.286 214.146 30.776 213.678 30.416C213.222 30.044 212.562 29.858 211.698 29.858C210.306 29.858 209.232 30.314 208.476 31.226L207.252 30.164C207.744 29.564 208.386 29.096 209.178 28.76C209.982 28.424 210.876 28.256 211.86 28.256C213.18 28.256 214.23 28.574 215.01 29.21C215.79 29.834 216.18 30.686 216.18 31.766C216.18 32.438 216.036 33.074 215.748 33.674C215.46 34.274 214.914 34.958 214.11 35.726L210.258 39.434H216.72ZM223.295 41.144C222.299 41.144 221.411 40.892 220.631 40.388C219.863 39.872 219.257 39.128 218.813 38.156C218.369 37.184 218.147 36.032 218.147 34.7C218.147 33.368 218.369 32.216 218.813 31.244C219.257 30.272 219.863 29.534 220.631 29.03C221.411 28.514 222.299 28.256 223.295 28.256C224.279 28.256 225.155 28.514 225.923 29.03C226.703 29.534 227.315 30.272 227.759 31.244C228.203 32.216 228.425 33.368 228.425 34.7C228.425 36.032 228.203 37.184 227.759 38.156C227.315 39.128 226.703 39.872 225.923 40.388C225.155 40.892 224.279 41.144 223.295 41.144ZM223.295 39.542C224.303 39.542 225.107 39.128 225.707 38.3C226.319 37.472 226.625 36.272 226.625 34.7C226.625 33.128 226.319 31.928 225.707 31.1C225.107 30.272 224.303 29.858 223.295 29.858C222.275 29.858 221.459 30.272 220.847 31.1C220.247 31.928 219.947 33.128 219.947 34.7C219.947 36.272 220.247 37.472 220.847 38.3C221.459 39.128 222.275 39.542 223.295 39.542ZM234.006 28.4V41H232.224V29.966H229.38V28.4H234.006ZM240.848 28.256C242.54 28.256 243.842 28.802 244.754 29.894C245.678 30.986 246.14 32.534 246.14 34.538C246.14 35.942 245.888 37.142 245.384 38.138C244.892 39.122 244.196 39.872 243.296 40.388C242.408 40.892 241.37 41.144 240.182 41.144C239.57 41.144 238.994 41.084 238.454 40.964C237.914 40.832 237.446 40.646 237.05 40.406L237.734 39.002C238.346 39.398 239.156 39.596 240.164 39.596C241.472 39.596 242.492 39.194 243.224 38.39C243.968 37.574 244.34 36.392 244.34 34.844V34.394C243.98 34.934 243.482 35.348 242.846 35.636C242.21 35.912 241.496 36.05 240.704 36.05C239.876 36.05 239.132 35.894 238.472 35.582C237.824 35.27 237.314 34.826 236.942 34.25C236.582 33.662 236.402 32.99 236.402 32.234C236.402 31.442 236.594 30.746 236.978 30.146C237.374 29.546 237.908 29.084 238.58 28.76C239.252 28.424 240.008 28.256 240.848 28.256ZM241.01 34.592C241.574 34.592 242.078 34.484 242.522 34.268C242.966 34.052 243.308 33.758 243.548 33.386C243.8 33.014 243.926 32.6 243.926 32.144C243.926 31.7 243.806 31.298 243.566 30.938C243.338 30.566 242.996 30.272 242.54 30.056C242.096 29.828 241.556 29.714 240.92 29.714C240.092 29.714 239.42 29.936 238.904 30.38C238.4 30.824 238.148 31.418 238.148 32.162C238.148 32.906 238.406 33.5 238.922 33.944C239.438 34.376 240.134 34.592 241.01 34.592Z" fill="#F3F3F3"/>
<path d="M318.72 39.434V41H309.666V39.776L314.796 34.826C315.42 34.226 315.84 33.71 316.056 33.278C316.272 32.834 316.38 32.39 316.38 31.946C316.38 31.286 316.146 30.776 315.678 30.416C315.222 30.044 314.562 29.858 313.698 29.858C312.306 29.858 311.232 30.314 310.476 31.226L309.252 30.164C309.744 29.564 310.386 29.096 311.178 28.76C311.982 28.424 312.876 28.256 313.86 28.256C315.18 28.256 316.23 28.574 317.01 29.21C317.79 29.834 318.18 30.686 318.18 31.766C318.18 32.438 318.036 33.074 317.748 33.674C317.46 34.274 316.914 34.958 316.11 35.726L312.258 39.434H318.72ZM325.295 41.144C324.299 41.144 323.411 40.892 322.631 40.388C321.863 39.872 321.257 39.128 320.813 38.156C320.369 37.184 320.147 36.032 320.147 34.7C320.147 33.368 320.369 32.216 320.813 31.244C321.257 30.272 321.863 29.534 322.631 29.03C323.411 28.514 324.299 28.256 325.295 28.256C326.279 28.256 327.155 28.514 327.923 29.03C328.703 29.534 329.315 30.272 329.759 31.244C330.203 32.216 330.425 33.368 330.425 34.7C330.425 36.032 330.203 37.184 329.759 38.156C329.315 39.128 328.703 39.872 327.923 40.388C327.155 40.892 326.279 41.144 325.295 41.144ZM325.295 39.542C326.303 39.542 327.107 39.128 327.707 38.3C328.319 37.472 328.625 36.272 328.625 34.7C328.625 33.128 328.319 31.928 327.707 31.1C327.107 30.272 326.303 29.858 325.295 29.858C324.275 29.858 323.459 30.272 322.847 31.1C322.247 31.928 321.947 33.128 321.947 34.7C321.947 36.272 322.247 37.472 322.847 38.3C323.459 39.128 324.275 39.542 325.295 39.542ZM340.956 39.434V41H331.902V39.776L337.032 34.826C337.656 34.226 338.076 33.71 338.292 33.278C338.508 32.834 338.616 32.39 338.616 31.946C338.616 31.286 338.382 30.776 337.914 30.416C337.458 30.044 336.798 29.858 335.934 29.858C334.542 29.858 333.468 30.314 332.712 31.226L331.488 30.164C331.98 29.564 332.622 29.096 333.414 28.76C334.218 28.424 335.112 28.256 336.096 28.256C337.416 28.256 338.466 28.574 339.246 29.21C340.026 29.834 340.416 30.686 340.416 31.766C340.416 32.438 340.272 33.074 339.984 33.674C339.696 34.274 339.15 34.958 338.346 35.726L334.494 39.434H340.956ZM347.532 41.144C346.536 41.144 345.648 40.892 344.868 40.388C344.1 39.872 343.494 39.128 343.05 38.156C342.606 37.184 342.384 36.032 342.384 34.7C342.384 33.368 342.606 32.216 343.05 31.244C343.494 30.272 344.1 29.534 344.868 29.03C345.648 28.514 346.536 28.256 347.532 28.256C348.516 28.256 349.392 28.514 350.16 29.03C350.94 29.534 351.552 30.272 351.996 31.244C352.44 32.216 352.662 33.368 352.662 34.7C352.662 36.032 352.44 37.184 351.996 38.156C351.552 39.128 350.94 39.872 350.16 40.388C349.392 40.892 348.516 41.144 347.532 41.144ZM347.532 39.542C348.54 39.542 349.344 39.128 349.944 38.3C350.556 37.472 350.862 36.272 350.862 34.7C350.862 33.128 350.556 31.928 349.944 31.1C349.344 30.272 348.54 29.858 347.532 29.858C346.512 29.858 345.696 30.272 345.084 31.1C344.484 31.928 344.184 33.128 344.184 34.7C344.184 36.272 344.484 37.472 345.084 38.3C345.696 39.128 346.512 39.542 347.532 39.542Z" fill="#F3F3F3"/>
<path d="M425.72 39.434V41H416.666V39.776L421.796 34.826C422.42 34.226 422.84 33.71 423.056 33.278C423.272 32.834 423.38 32.39 423.38 31.946C423.38 31.286 423.146 30.776 422.678 30.416C422.222 30.044 421.562 29.858 420.698 29.858C419.306 29.858 418.232 30.314 417.476 31.226L416.252 30.164C416.744 29.564 417.386 29.096 418.178 28.76C418.982 28.424 419.876 28.256 420.86 28.256C422.18 28.256 423.23 28.574 424.01 29.21C424.79 29.834 425.18 30.686 425.18 31.766C425.18 32.438 425.036 33.074 424.748 33.674C424.46 34.274 423.914 34.958 423.11 35.726L419.258 39.434H425.72ZM432.295 41.144C431.299 41.144 430.411 40.892 429.631 40.388C428.863 39.872 428.257 39.128 427.813 38.156C427.369 37.184 427.147 36.032 427.147 34.7C427.147 33.368 427.369 32.216 427.813 31.244C428.257 30.272 428.863 29.534 429.631 29.03C430.411 28.514 431.299 28.256 432.295 28.256C433.279 28.256 434.155 28.514 434.923 29.03C435.703 29.534 436.315 30.272 436.759 31.244C437.203 32.216 437.425 33.368 437.425 34.7C437.425 36.032 437.203 37.184 436.759 38.156C436.315 39.128 435.703 39.872 434.923 40.388C434.155 40.892 433.279 41.144 432.295 41.144ZM432.295 39.542C433.303 39.542 434.107 39.128 434.707 38.3C435.319 37.472 435.625 36.272 435.625 34.7C435.625 33.128 435.319 31.928 434.707 31.1C434.107 30.272 433.303 29.858 432.295 29.858C431.275 29.858 430.459 30.272 429.847 31.1C429.247 31.928 428.947 33.128 428.947 34.7C428.947 36.272 429.247 37.472 429.847 38.3C430.459 39.128 431.275 39.542 432.295 39.542ZM447.956 39.434V41H438.902V39.776L444.032 34.826C444.656 34.226 445.076 33.71 445.292 33.278C445.508 32.834 445.616 32.39 445.616 31.946C445.616 31.286 445.382 30.776 444.914 30.416C444.458 30.044 443.798 29.858 442.934 29.858C441.542 29.858 440.468 30.314 439.712 31.226L438.488 30.164C438.98 29.564 439.622 29.096 440.414 28.76C441.218 28.424 442.112 28.256 443.096 28.256C444.416 28.256 445.466 28.574 446.246 29.21C447.026 29.834 447.416 30.686 447.416 31.766C447.416 32.438 447.272 33.074 446.984 33.674C446.696 34.274 446.15 34.958 445.346 35.726L441.494 39.434H447.956ZM453.342 28.4V41H451.56V29.966H448.716V28.4H453.342Z" fill="#F3F3F3"/>
</svg>
